<svg width="40" height="34" viewBox="0 0 40 34" fill="none" xmlns="http://www.w3.org/2000/svg">
<path fill-rule="evenodd" clip-rule="evenodd" d="M39.4993 16.5772C39.4993 17.2154 39.1156 17.7911 38.5264 18.0366L2.75063 32.9432C2.16302 33.188 1.48589 33.0566 1.03255 32.6097C0.579214 32.1628 0.438113 31.4876 0.674533 30.8965L6.40227 16.5772L0.674532 2.2578C0.438111 1.66675 0.579213 0.991563 1.03255 0.544657C1.48588 0.0977533 2.16302 -0.0336906 2.75063 0.211148L38.5264 15.1177C39.1156 15.3632 39.4993 15.9389 39.4993 16.5772ZM5.00814 4.57744L9.57314 15.99C9.72392 16.3669 9.72392 16.7874 9.57314 17.1644L5.00814 28.5769L33.8075 16.5772L5.00814 4.57744Z" fill="#767676"/>
</svg>
